# xmcd
#
# Track frame offsets:
#	150
#	22045
#	37076
#	56778
#	73482
#	91283
#	103301
#	124016
#	139795
#	159024
#	178001
#	189468
#	198439
#	212314
#	231124
#	245767
#	258233
#
# Disc length: 3696 seconds
#
# Revision: 1
# Processed by: cddbd v1.5.2PL0 Copyright (c) Steve Scherf et al.
# Submitted via: audiograbber 1.83.01
#
DISCID=f80e6e11
DTITLE=Sampler - World Trade Center - In stillen Gedanken [CD 2)
DYEAR=1900
DGENRE=
TTITLE0=Creed - Higher
TTITLE1=Dalia - Mother I Miss You
TTITLE2=Enrique Iglesias - Hero
TTITLE3=Garth Brooks - The Dance
TTITLE4=Hope - Jo Dee Messina
TTITLE5=Jimi Hendrix - The Wind Crys Mary
TTITLE6=Live - Lightening Crashes
TTITLE7=Mix - Mix Arms Wide Open, Born in the USA, God Bless America, others
TTITLE8=Curse - Nichts ist mehr so wie es mal war
TTITLE9=Bruce Springsteen - Born in the USA
TTITLE10=Buffalo Springfield - For What It's Worth
TTITLE11=Eric Clapton - Tears in Heaven
TTITLE12=John Lennon - Imagine
TTITLE13=Metallica - Don't Tread on Me
TTITLE14=Moby - Porcelain
TTITLE15=Neil Young - Rockin in the Free World
TTITLE16=Red Skelton - Pledge of Allegiance
EXTD=
EXTT0=
EXTT1=
EXTT2=
EXTT3=
EXTT4=
EXTT5=
EXTT6=
EXTT7=
EXTT8=
EXTT9=
EXTT10=
EXTT11=
EXTT12=
EXTT13=
EXTT14=
EXTT15=
EXTT16=
PLAYORDER=
